<svg width="32" height="32" viewBox="0 0 32 32" fill="none" xmlns="http://www.w3.org/2000/svg">
<path d="M27.2062 5.91211C27.9472 5.91211 28.5062 6.56211 28.2072 7.77111L24.5802 24.8661C24.3267 26.0816 23.5922 26.3741 22.5782 25.8086L13.9267 19.4191C13.8931 19.395 13.8658 19.3633 13.847 19.3266C13.8281 19.2898 13.8183 19.2492 13.8183 19.2079C13.8183 19.1666 13.8281 19.1259 13.847 19.0891C13.8658 19.0524 13.8931 19.0207 13.9267 18.9966L23.9172 9.97461C24.3722 9.57161 23.8197 9.37661 23.2217 9.74061L10.6832 17.6511C10.6452 17.6759 10.602 17.6917 10.5569 17.6974C10.5119 17.703 10.4662 17.6983 10.4232 17.6836L5.0997 16.0001C3.9167 15.6556 3.9167 14.8431 5.3662 14.2646L26.6667 6.04861C26.8356 5.96757 27.0191 5.92116 27.2062 5.91211V5.91211Z" stroke="#F6F6F6" stroke-linecap="round" stroke-linejoin="round"/>
</svg>
